<svg width="226" height="321" viewBox="0 0 226 321" fill="none" xmlns="http://www.w3.org/2000/svg">
<path d="M1 311.5V293.5H86.3084V284.5L118.234 288V281.5V254.5H107.243L118.234 249.5V242.5H113.523V237.5H118.234V209V203V181V171V168V158.5L120.327 156.5V125.5L113.523 121.5L118.234 115.5V107V101L123.467 91L118.234 79H123.467V1L126.607 79L129.224 81.5L126.607 86.5V95.5" stroke="white"/>
<path d="M225 321V299.5L212.439 288L196.738 254.5L161.15 284.5L129.224 288V281.5V254.5H140.215L129.224 249.5V242.5H133.935V237.5H129.224V209V203V181V171V168V158.5L127.131 156.5V125.5L133.935 121.5L129.224 115.5V107V101L123.991 91L129.224 79H123.991V1L120.85 79L118.234 81.5L120.85 86.5V95.5" stroke="white"/>
</svg>
